# xmcd
#
# Track frame offsets: 
#        150
#        14987
#        28370
#        55073
#        68232
#        91453
#        117754
#        137078
#        157110
#
# Disc length: 2347 seconds
#
# Revision: 0
# Processed by: cddbd v1.5.2PL0 Copyright (c) Steve Scherf et al.
# Submitted via: ExactAudioCopy v1.0b4
#
DISCID=82092909
DTITLE=Lightnin' Hopkins - Sam Lightnin' Hopkins - The Blues (LP)
DYEAR=1900
DGENRE=Blues
TTITLE0=Mojo Hand
TTITLE1=Little Wail
TTITLE2=Cotton
TTITLE3=Take Me Back, Baby
TTITLE4=Really Nothin' But The Blues
TTITLE5=Hurricane Betsy
TTITLE6=Guitar Lightnin'
TTITLE7=Woke Up This Morning
TTITLE8=Shake Yourself
EXTD=
EXTT0=
EXTT1=
EXTT2=
EXTT3=
EXTT4=
EXTT5=
EXTT6=
EXTT7=
EXTT8=
PLAYORDER=
